<svg width="34" height="34" viewBox="0 0 34 34" fill="none" xmlns="http://www.w3.org/2000/svg">
<path d="M18.099 28.6651L18.1007 32.4167C18.1007 32.4167 18.1007 32.4168 18.1007 32.4168C18.1006 32.9718 17.6893 33.4311 17.155 33.5061L16.9958 33.5167C16.4429 33.5143 15.9861 33.1038 15.9113 32.5711L15.9006 32.4117L15.899 28.665L15.8989 28.515H15.749H12.834H12.684V28.665V32.4167C12.684 32.9718 12.2727 33.431 11.7383 33.5061L11.5792 33.5167C11.0262 33.5143 10.5694 33.1038 10.4947 32.5711L10.484 32.4117L10.4847 28.5419L10.4848 28.4193L10.3646 28.3949C7.97432 27.91 6.09115 26.027 5.606 23.6369L5.58161 23.5167H5.459H1.58398C0.976478 23.5167 0.483984 23.0242 0.483984 22.4167C0.483984 21.8616 0.895241 21.4024 1.42964 21.3274L1.58902 21.3167L5.33405 21.315L5.48398 21.315V21.165V18.2484V18.0983L5.33392 18.0984L1.58398 18.1C1.58396 18.1 1.58394 18.1 1.58392 18.1C1.02886 18.1 0.569637 17.6887 0.494711 17.1544L0.483995 16.9952C0.486399 16.4423 0.896816 15.9855 1.42965 15.9107L1.58902 15.9L5.33405 15.8984L5.48398 15.8983V15.7484V12.8317V12.6816L5.33392 12.6817L1.58398 12.6834C1.58396 12.6834 1.58394 12.6834 1.58392 12.6834C1.02886 12.6833 0.569636 12.2721 0.494711 11.7377L0.483995 11.5785C0.4864 11.0256 0.896833 10.5688 1.42967 10.4941L1.58906 10.4834L5.4594 10.4818L5.58192 10.4817L5.60633 10.3617C6.092 7.97228 7.97486 6.09002 10.3646 5.60525L10.4848 5.58086L10.4847 5.45821L10.484 1.58337C10.484 1.58336 10.484 1.58335 10.484 1.58334C10.484 0.975851 10.9765 0.483374 11.584 0.483374C12.1391 0.483374 12.5983 0.894654 12.6733 1.42906L12.684 1.58842V5.33171V5.48171H12.834H15.749H15.8989L15.899 5.33177L15.9007 1.58344V1.58337C15.9007 1.02829 16.312 0.56903 16.8463 0.4941L17.0055 0.483385C17.5584 0.485788 18.0152 0.896199 18.09 1.42903L18.1006 1.58835L18.099 5.33164L18.0989 5.48171H18.249H21.1673H21.3173V5.33171V1.58337C21.3173 1.07902 21.6569 0.653601 22.1201 0.52395L22.2678 0.493775L22.4222 0.483385C22.9751 0.485788 23.4319 0.896199 23.5067 1.42903L23.5173 1.58839L23.5182 5.45861L23.5182 5.58117L23.6383 5.60557C26.0279 6.091 27.9105 7.97378 28.3953 10.3635L28.4197 10.4837L28.5423 10.4837L32.4173 10.4834C33.0248 10.4834 33.5173 10.9759 33.5173 11.5834C33.5173 12.1385 33.106 12.5977 32.5717 12.6726L32.4123 12.6834H28.6673H28.5173V12.8334V15.75V15.9H28.6673H32.4173C32.9724 15.9 33.4317 16.3114 33.5067 16.8457L33.5173 17.0049C33.5149 17.5578 33.1044 18.0146 32.5717 18.0894L32.4123 18.1H28.6673H28.5173V18.25V21.1667V21.3167H28.6673H32.4173C32.9724 21.3167 33.4317 21.728 33.5067 22.2623L33.5173 22.4215C33.5149 22.9744 33.1044 23.4313 32.5717 23.5061L32.4123 23.5167L28.5419 23.518L28.4194 23.5181L28.395 23.6382C27.9095 26.0272 26.0274 27.9092 23.6383 28.3945L23.5182 28.4189L23.5182 28.5415L23.5173 32.4167C23.5173 33.0242 23.0248 33.5167 22.4173 33.5167C21.8622 33.5167 21.403 33.1054 21.328 32.5711L21.3173 32.4117V28.665V28.515H21.1673H18.249H18.0989L18.099 28.6651ZM11.584 7.68337C9.43007 7.68337 7.68398 9.42946 7.68398 11.5834V22.4167C7.68398 24.5705 9.43007 26.3167 11.584 26.3167H22.4173C24.5712 26.3167 26.3173 24.5705 26.3173 22.4167V11.5834C26.3173 9.42946 24.5712 7.68337 22.4173 7.68337H11.584ZM17.0088 12.1583C19.6875 12.1583 21.8588 14.3297 21.8588 17.0082C21.8588 19.6869 19.6875 21.8582 17.0088 21.8582C14.3303 21.8582 12.1589 19.6869 12.1589 17.0082C12.1589 14.3297 14.3303 12.1583 17.0088 12.1583ZM17.0088 14.3582C15.5453 14.3582 14.3588 15.5447 14.3588 17.0082C14.3588 18.4719 15.5453 19.6582 17.0088 19.6582C18.4725 19.6582 19.6588 18.4719 19.6588 17.0082C19.6588 15.5447 18.4725 14.3582 17.0088 14.3582Z" fill="#212121" stroke="white" stroke-width="0.3"/>
</svg>
