<svg width="34" height="34" viewBox="0 0 34 34" fill="none" xmlns="http://www.w3.org/2000/svg">
<path d="M21.1637 33.441L21.1636 33.441C20.66 33.6419 20.0955 33.4283 19.836 32.9576L19.7693 32.813L17.3827 26.5892L17.3458 26.4929L17.2427 26.4929L5.43624 26.4932L5.28434 26.4834L5.17688 26.4764L5.13592 26.576L2.55797 32.8426C2.32719 33.4036 1.69665 33.6643 1.15096 33.431L1.15095 33.4309C0.650993 33.2172 0.389831 32.6605 0.525371 32.1364L0.576166 31.9852L10.5142 7.82317C10.8656 6.96885 12.0045 6.93035 12.4331 7.68902L12.5096 7.85304L21.7746 32.0147C21.9925 32.583 21.7162 33.2208 21.1637 33.441ZM29.342 24.0829C29.342 24.6379 28.9307 25.0972 28.3964 25.1722L28.2372 25.1829C27.6843 25.1805 27.2275 24.77 27.1527 24.2373L27.142 24.0779V1.58826C27.142 0.980751 27.6345 0.488257 28.242 0.488257C28.7971 0.488257 29.2564 0.89956 29.3312 1.43396L29.342 1.59334L29.3415 9.49825L29.3415 9.64819L29.4915 9.64826L32.4086 9.64954H32.4087C32.9638 9.64954 33.4231 10.0608 33.4979 10.5952L33.5087 10.7545C33.5062 11.3073 33.0958 11.7641 32.5631 11.8388L32.4037 11.8495L29.4916 11.8483L29.3415 11.8482L29.3415 11.9983L29.342 24.0829ZM11.8241 11.5239L11.6892 11.1791L11.546 11.5205L6.27578 24.0849L6.18852 24.2929H6.4141H16.5974H16.8171L16.7371 24.0882L11.8241 11.5239ZM13.8121 1.58826C13.8121 1.03317 14.2234 0.57391 14.7578 0.498983L14.9171 0.488257H24.075C24.6301 0.488257 25.0894 0.899514 25.1644 1.43391L25.175 1.59326V6.59442C25.175 10.4192 22.0745 13.5199 18.2497 13.5199C17.6422 13.5199 17.1497 13.0274 17.1497 12.4198C17.1497 11.8123 17.6422 11.3198 18.2497 11.3198C20.7628 11.3198 22.8177 9.358 22.9664 6.88214L22.9665 6.88214L22.9666 6.87762L22.975 6.59891L22.975 6.59891V6.59442V2.83826V2.68826H22.825H14.912C14.3045 2.68826 13.8121 2.19578 13.8121 1.58826Z" fill="#212121" stroke="white" stroke-width="0.3"/>
</svg>
