<svg width="48" height="48" viewBox="0 0 48 48" fill="none" xmlns="http://www.w3.org/2000/svg">
<g clip-path="url(#clip0_1952_46)">
<path d="M31.756 13.754C31.3419 13.34 30.6706 13.34 30.2565 13.754C29.8424 14.1681 29.8424 14.8395 30.2565 15.2535L37.9231 22.9201L7.5334 22.9202C6.93652 22.9201 6.45258 23.404 6.45256 24.001C6.45253 24.598 6.93646 25.0819 7.53344 25.0819L37.9224 25.0819L30.2565 32.7478C29.8424 33.1619 29.8424 33.8333 30.2565 34.2474C30.6705 34.6614 31.3419 34.6614 31.756 34.2474L41.2529 24.7505C41.667 24.3364 41.667 23.665 41.2529 23.2509L31.756 13.754Z" fill="#212121"/>
</g>
<defs>
<clipPath id="clip0_1952_46">
<rect width="33.9301" height="33.9301" fill="white" transform="translate(24.0078 0.0078125) rotate(45)"/>
</clipPath>
</defs>
</svg>
