<svg width="40" height="40" viewBox="0 0 40 40" fill="none" xmlns="http://www.w3.org/2000/svg">
<path d="M7.00985 12.8027L7.00986 12.8027L9.26586 12.0352C10.5688 11.592 11.592 10.5688 12.0352 9.26586L12.8027 7.00986L12.9447 7.05816L12.8027 7.00986C13.1999 5.84214 14.4685 5.21753 15.6363 5.61476L15.6363 5.61476C15.7276 5.64585 15.8169 5.68283 15.9035 5.72546L18.0414 6.77804C19.2761 7.38594 20.7232 7.38594 21.9579 6.77804L24.0957 5.72546L24.162 5.86003L24.0957 5.72545C25.1333 5.21464 26.3746 5.58305 26.9748 6.54301L26.9789 6.54952L26.9787 6.54961L27.0824 6.73596L27.0884 6.74681L27.088 6.74702L27.1436 6.86998L27.1476 6.87878L27.1473 6.87889L27.195 7.00521L27.1968 7.00984L27.1967 7.00986L27.964 9.26585C27.964 9.26585 27.964 9.26586 27.964 9.26586C28.4073 10.5688 29.4306 11.592 30.7335 12.0352L32.9895 12.8027L32.9412 12.9447L32.9895 12.8027C34.1571 13.1999 34.7817 14.4685 34.3845 15.6363L34.3845 15.6363C34.3534 15.7276 34.3164 15.8169 34.274 15.9034L34.2739 15.9035L33.2212 18.0414C32.6133 19.2761 32.6133 20.7232 33.2212 21.9579L34.2739 24.0957L34.2739 24.0958C34.8186 25.2023 34.3633 26.541 33.2567 27.0858C33.2567 27.0859 33.2566 27.0859 33.2566 27.0859L33.1903 26.9513C33.1097 26.9912 33.0263 27.0257 32.9412 27.0547L7.00985 12.8027ZM7.00985 12.8027C6.91847 12.8338 6.82922 12.8707 6.74263 12.9134L6.74263 12.9134C5.63603 13.4582 5.18063 14.7969 5.72546 15.9035L6.77804 18.0414C7.38594 19.2761 7.38594 20.7232 6.77804 21.9579L5.72546 24.0957L5.72544 24.0958C5.68282 24.1824 5.64585 24.2717 5.61477 24.363L5.61476 24.363C5.21752 25.5308 5.84215 26.7993 7.00984 27.1967L7.00986 27.1967L9.26585 27.964C9.26585 27.964 9.26586 27.964 9.26586 27.964C10.5688 28.4073 11.592 29.4306 12.0352 30.7335L12.8027 32.9895L12.8027 32.9895C12.8338 33.0807 12.8707 33.1701 12.9134 33.2566C13.4582 34.3632 14.7969 34.8187 15.9035 34.2739L15.8372 34.1393L15.9035 34.2739L18.0414 33.2212C19.2761 32.6133 20.7232 32.6133 21.9579 33.2212L24.0957 34.2739L24.0959 34.274C24.1825 34.3165 24.2717 34.3534 24.363 34.3845L24.363 34.3845C25.5308 34.7817 26.7993 34.1571 27.1967 32.9895L27.1967 32.9895L27.964 30.7335L7.00985 12.8027ZM16.8752 3.7517L16.8752 3.75171L19.0132 4.80429C19.6352 5.11052 20.3641 5.11052 20.9861 4.80429L23.1241 3.75171L23.0578 3.61713L23.1241 3.7517C25.3199 2.67055 27.9764 3.57362 29.0585 5.7687L29.178 6.03259L29.2801 6.30361L30.0468 8.55736L30.1888 8.50905L30.0468 8.55737C30.2702 9.21372 30.7856 9.72917 31.4418 9.95245L31.4902 9.81045L31.4419 9.95246L33.6979 10.7199C36.0159 11.5084 37.2558 14.0268 36.4673 16.3448C36.4056 16.5262 36.3322 16.7034 36.2476 16.8752L35.1949 19.0132C34.8887 19.6352 34.8887 20.3641 35.1949 20.9861L36.2476 23.1241C37.3292 25.3206 36.4251 27.9782 34.2284 29.0596L34.2284 29.0596C34.0565 29.1443 33.8794 29.2177 33.698 29.2793L33.6979 29.2793L31.4419 30.0468L31.4418 30.0468C30.7856 30.2702 30.2702 30.7856 30.0468 31.4418L30.0468 31.4419L29.2793 33.6979C28.4908 36.0159 25.9726 37.2558 23.6545 36.4673C23.4731 36.4056 23.2959 36.3322 23.1241 36.2476L20.9861 35.1949C20.3641 34.8887 19.6352 34.8887 19.0132 35.1949L16.8752 36.2476C14.6786 37.3292 12.0211 36.4251 10.9396 34.2284L10.9396 34.2284C10.855 34.0565 10.7816 33.8794 10.7199 33.6979L10.7199 33.6979L9.95246 31.4419L9.81045 31.4902L9.95245 31.4418C9.72917 30.7856 9.21372 30.2702 8.55737 30.0468L8.50905 30.1888L8.55736 30.0468L6.30136 29.2793C3.98333 28.4908 2.74345 25.9725 3.53197 23.6545C3.59368 23.4731 3.66708 23.2959 3.7517 23.1241L3.61722 23.0579L3.75171 23.1241L4.80429 20.9861C5.11052 20.3641 5.11052 19.6352 4.80429 19.0132L3.75171 16.8752L3.61713 16.9415L3.7517 16.8752C2.6702 14.6786 3.57421 12.0211 5.77085 10.9396C5.94275 10.855 6.11996 10.7816 6.30135 10.7199L6.30135 10.7199L8.55735 9.95246C9.21372 9.72918 9.72918 9.21372 9.95246 8.55735L10.7199 6.30135L10.5779 6.25305L10.7199 6.30135C11.5084 3.98333 14.0268 2.74345 16.3448 3.53197C16.5262 3.59369 16.7034 3.66709 16.8752 3.7517ZM16.6351 24.0772L16.7403 24.2034L16.8564 24.0872L25.8886 15.0552C26.3181 14.6256 27.0145 14.6256 27.4441 15.0552L27.5502 14.9491L27.4441 15.0552C27.8333 15.4443 27.87 16.0527 27.5539 16.483L27.4402 16.6146L17.4441 26.6108L17.4441 26.6108C17.0263 27.0287 16.3626 27.0364 15.9355 26.6553L15.8178 26.533L11.6546 21.5371C11.2657 21.0704 11.3287 20.3769 11.7954 19.9879C12.2182 19.6357 12.8274 19.6542 13.2273 20.0078L13.3482 20.1331L16.6351 24.0772Z" fill="#212121" stroke="white" stroke-width="0.3"/>
</svg>
