<svg width="30" height="40" viewBox="0 0 30 40" fill="none" xmlns="http://www.w3.org/2000/svg">
<path d="M19.0455 32.7483L18.9749 33.0545L18.3205 35.8935L18.3185 35.9018L18.316 35.91L18.2558 36.108L18.2533 36.1164L18.2502 36.1245C17.9944 36.7943 17.3487 37.2498 16.6151 37.2498H12.3875H12.3789L12.3703 37.2492L12.1639 37.235L12.1553 37.2344L12.1468 37.2332C11.4365 37.135 10.847 36.6081 10.6822 35.8933L19.0455 32.7483ZM19.0455 32.7483H18.7313H10.2687H9.95423L10.0251 33.0547L10.6821 35.8931L19.0455 32.7483ZM22.8854 14.3757L23.0622 14.5525L22.8854 14.3757L20.7641 16.4972C20.2759 16.9854 19.4843 16.9854 18.9961 16.4972C18.5079 16.009 18.5079 15.2175 18.9961 14.7293L21.1176 12.6078C21.6058 12.1196 22.3972 12.1196 22.8854 12.6078C23.3736 13.096 23.3736 13.8875 22.8854 14.3757ZM23.5007 25.8068L23.5006 25.8069C23.3213 25.9823 23.1822 26.1934 23.0921 26.4259L23.0889 26.4343L23.0862 26.4429L23.0234 26.6475L23.0208 26.656L23.0188 26.6646L20.7565 36.4565C20.3362 38.2757 18.7836 39.5942 16.9471 39.7372L16.6104 39.75H12.3875C10.5198 39.75 8.88535 38.5335 8.33313 36.776L8.24484 36.4507L5.98663 26.6651C5.91131 26.3386 5.74388 26.0406 5.50416 25.8066C2.18184 22.5618 0.423003 18.9741 0.262155 15.0898L0.250042 14.5005L0.257695 14.0284C0.506912 6.37664 6.78851 0.25 14.501 0.25C22.3717 0.25 28.752 6.63038 28.752 14.501C28.752 18.6133 26.9875 22.3995 23.5007 25.8068ZM2.75869 14.0504L2.75864 14.0504L2.75855 14.0551L2.75025 14.4963L2.75002 14.4963L2.75028 14.5071L2.76372 15.0611L2.76365 15.0611L2.76394 15.0672C2.91999 18.2712 4.40614 21.2394 7.25106 24.0179C7.74881 24.5041 8.11829 25.1037 8.32931 25.7629L8.42396 26.108L9.33304 30.0542L9.3777 30.2481H9.57666H13.0009H13.2509V29.9981V17.4998C13.2509 16.8095 13.8106 16.2497 14.501 16.2497C15.1914 16.2497 15.7511 16.8095 15.7511 17.4998V29.9981V30.2481H16.0011H19.4233H19.622L19.6669 30.0545L20.5828 26.1019L20.5828 26.1017C20.7392 25.4245 21.059 24.7978 21.5117 24.2753L21.7571 24.0151C24.598 21.2376 26.0822 18.2704 26.2381 15.0673L26.2382 15.0673L26.2383 15.0612L26.2517 14.507L26.252 14.5071L26.2517 14.4962L26.2433 14.0551H26.2434L26.2432 14.0504C26.0064 7.76935 20.8399 2.75021 14.501 2.75021C8.16208 2.75021 2.99557 7.76935 2.75869 14.0504ZM13.2509 9.50016C13.2509 8.80975 13.8106 8.25005 14.501 8.25005C15.1914 8.25005 15.7511 8.80975 15.7511 9.50016V12.5004C15.7511 13.1908 15.1914 13.7505 14.501 13.7505C13.8106 13.7505 13.2509 13.1908 13.2509 12.5004V9.50016ZM6.11651 12.6078C6.6047 12.1196 7.39623 12.1196 7.88442 12.6078L10.0059 14.7293L10.1827 14.5525L10.0059 14.7293C10.4941 15.2175 10.4941 16.009 10.0059 16.4972L10.1827 16.674L10.0059 16.4972C9.51774 16.9854 8.72622 16.9854 8.23801 16.4972L6.11651 14.3757C5.62832 13.8875 5.62832 13.096 6.11651 12.6078Z" fill="#212121" stroke="white" stroke-width="0.5"/>
</svg>
